<svg width="21" height="20" viewBox="0 0 21 20" fill="none" xmlns="http://www.w3.org/2000/svg">
<path fill-rule="evenodd" clip-rule="evenodd" d="M6.5 4.5H11.1429C13.8254 4.5 16 6.67462 16 9.35714V14H16.5C18.7091 14 20.5 12.2091 20.5 10V4C20.5 1.79086 18.7091 0 16.5 0H10.5C8.29086 0 6.5 1.79086 6.5 4V4.5ZM4.5 20H10.5C12.7091 20 14.5 18.2091 14.5 16V10C14.5 7.79086 12.7091 6 10.5 6H4.5C2.29086 6 0.5 7.79086 0.5 10V16C0.5 18.2091 2.29086 20 4.5 20ZM11.2809 11.6247C11.6259 11.1934 11.556 10.5641 11.1247 10.2191C10.6934 9.87412 10.0641 9.94404 9.71913 10.3753L6.41708 14.5029L5.20711 13.2929C4.81658 12.9024 4.18342 12.9024 3.79289 13.2929C3.40237 13.6834 3.40237 14.3166 3.79289 14.7071L5.39788 16.3121C6.03005 16.9443 7.07136 16.8866 7.62985 16.1885L11.2809 11.6247Z" fill="white"/>
</svg>
